<svg xmlns="http://www.w3.org/2000/svg" xmlns:xlink="http://www.w3.org/1999/xlink" width="65px" height="65px">
<path fill-rule="evenodd" stroke="rgb(0, 150, 218)" stroke-width="6.394px" stroke-linecap="butt" stroke-linejoin="miter" fill="white" d="M32.697,3.797 C48.548,3.797 61.397,16.646 61.397,32.497 C61.397,48.348 48.548,61.197 32.697,61.197 C16.846,61.197 3.997,48.348 3.997,32.497 C3.997,16.646 16.846,3.797 32.697,3.797 Z"></path>
<path fill-rule="evenodd" fill="rgb(81, 81, 81)" d="M43.025,17.791 C46.599,17.791 49.497,20.688 49.497,24.263 C49.497,27.837 46.599,30.735 43.025,30.735 C39.451,30.735 36.553,27.837 36.553,24.263 C36.553,20.688 39.451,17.791 43.025,17.791 Z"></path>
<path fill-rule="evenodd" fill="rgb(81, 81, 81)" d="M40.085,35.697 C42.035,35.697 43.616,37.278 43.616,39.228 C43.616,41.179 42.035,42.759 40.085,42.759 C38.134,42.759 36.553,41.179 36.553,39.228 C36.553,37.278 38.134,35.697 40.085,35.697 Z"></path>
<path fill-rule="evenodd" fill="rgb(81, 81, 81)" d="M24.850,17.791 C28.424,17.791 31.322,20.688 31.322,24.263 C31.322,27.837 28.424,30.735 24.850,30.735 C21.276,30.735 18.378,27.837 18.378,24.263 C18.378,20.688 21.276,17.791 24.850,17.791 Z"></path>
<path fill-rule="evenodd" fill="rgb(81, 81, 81)" d="M24.850,35.697 C28.424,35.697 31.322,38.596 31.322,42.172 C31.322,45.748 28.424,48.647 24.850,48.647 C21.276,48.647 18.378,45.748 18.378,42.172 C18.378,38.596 21.276,35.697 24.850,35.697 Z"></path>
<path fill-rule="evenodd" stroke="rgb(81, 81, 81)" stroke-width="2px" stroke-linecap="butt" stroke-linejoin="miter" fill="rgb(81, 81, 81)" d="M42.961,23.018 L42.961,25.633 L26.748,25.633 L26.748,23.018 L42.961,23.018 Z"></path>
<path fill-rule="evenodd" stroke="rgb(81, 81, 81)" stroke-width="2px" stroke-linecap="butt" stroke-linejoin="miter" fill="rgb(81, 81, 81)" d="M26.094,39.231 L23.479,39.231 L23.479,23.018 L26.094,23.018 L26.094,39.231 Z"></path>
</svg>
